<!DOCTYPE svg PUBLIC "-//W3C//DTD SVG 1.1//EN" "http://www.w3.org/Graphics/SVG/1.1/DTD/svg11.dtd">
<!-- Uploaded to: SVG Repo, www.svgrepo.com, Transformed by: SVG Repo Mixer Tools -->
<svg fill="#000000" height="237px" width="237px" version="1.1" id="Capa_1" xmlns="http://www.w3.org/2000/svg" xmlns:xlink="http://www.w3.org/1999/xlink" viewBox="0 0 464.92 464.92" xml:space="preserve">
<g id="SVGRepo_bgCarrier" stroke-width="0"/>
<g id="SVGRepo_tracerCarrier" stroke-linecap="round" stroke-linejoin="round"/>
<g id="SVGRepo_iconCarrier"> <g> <g> <g> <path d="M225.338,230.199c-1.311,0-2.6-0.54-3.53-1.471c-0.93-0.93-1.47-2.21-1.47-3.529c0-1.32,0.54-2.61,1.47-3.54 c0.92-0.931,2.21-1.46,3.53-1.46s2.61,0.529,3.54,1.46c0.93,0.93,1.46,2.22,1.46,3.54c0,1.31-0.53,2.6-1.46,3.529 C227.937,229.659,226.658,230.199,225.338,230.199z"/> </g> <g> <path d="M279.777,230.199c-1.319,0-2.6-0.54-3.539-1.471c-0.931-0.93-1.461-2.22-1.461-3.529c0-1.32,0.53-2.61,1.461-3.54 c0.93-0.931,2.22-1.46,3.539-1.46c1.32,0,2.61,0.529,3.53,1.46c0.931,0.93,1.47,2.22,1.47,3.54c0,1.31-0.539,2.6-1.47,3.529 C282.378,229.659,281.088,230.199,279.777,230.199z"/> </g> </g> <g> <path d="M252.557,265.936c-17.291,0-30.836-9.304-30.836-21.181c0-2.762,2.238-5,5-5s5,2.238,5,5 c0,5.288,8.557,11.181,20.836,11.181c12.28,0,20.838-5.892,20.838-11.181c0-2.762,2.238-5,5-5c2.762,0,5,2.238,5,5 C283.395,256.633,269.849,265.936,252.557,265.936z"/> </g> <path d="M356.489,290.877h-5.195l-47.933-28.348c11.221-10.902,18.079-25.412,18.079-41.322c0-12.643-4.234-24.634-12.262-34.896 c-0.008-0.083-0.012-0.167-0.025-0.251c-0.03-0.18-0.075-0.352-0.124-0.524c-0.026-0.095-0.034-0.189-0.066-0.283l-31.039-90.205 L287.95,5.557l-0.022-0.002c0.197-1.779-0.547-3.603-2.127-4.684c-2.279-1.557-5.391-0.971-6.949,1.309l-46.455,68 c-0.278,0.408-0.495,0.855-0.643,1.327l-35.645,113.88c-0.098,0.311-0.155,0.628-0.19,0.945 c-8.015,10.26-12.243,22.243-12.243,34.875c0,15.911,6.859,30.421,18.08,41.323l-47.932,28.347h-5.195 c-6.483,0-12.291,2.901-16.229,7.461l-35.729-98.254c-0.944-2.595-3.811-3.935-6.408-2.99c-2.595,0.944-3.934,3.813-2.99,6.408 l39.948,109.859c0.54,11.355,9.92,20.434,21.407,20.434h1.52v29.169c0,1.907,1.085,3.647,2.797,4.488 c1.709,0.839,3.752,0.632,5.261-0.532l41.698-32.23l-5.478,109.381c-2.94,4.578-4.653,10.016-4.653,15.849c0,2.762,2.238,5,5,5 h48.846c2.762,0,5-2.238,5-5c0-0.621-0.025-1.235-0.064-1.847h8.006c-0.039,0.611-0.064,1.226-0.064,1.847c0,2.762,2.238,5,5,5 h48.846c0.008,0.001,0.015,0.001,0.02,0c2.762,0,5-2.238,5-5c0-0.167-0.008-0.331-0.023-0.494 c-0.094-5.645-1.791-10.905-4.647-15.354l-5.478-109.381l41.698,32.23c1.509,1.167,3.552,1.372,5.261,0.532 c1.712-0.841,2.797-2.581,2.797-4.488v-29.169h1.52c11.833,0,21.459-9.626,21.459-21.458 C377.948,300.504,368.322,290.877,356.489,290.877z M150.149,323.795h-1.52c-6.318,0-11.459-5.14-11.459-11.458 c0-6.319,5.141-11.46,11.459-11.46h1.52V323.795z M313.095,279.904c-5.023,7.744-17.983,25.001-40.257,37.175l-13.136-34.952 c13.299-1.228,25.483-5.831,35.454-12.832L313.095,279.904z M307.359,202.407c-5.445,3.662-13.085,5.792-21.159,5.792 c-14.992,0-27.734-7.379-28.594-16.319h43.239C303.508,195.189,305.684,198.718,307.359,202.407z M241.075,75.205l34.7-50.793 l-7.915,70.642c-0.083,0.736,0,1.482,0.241,2.184l10.667,30.999l-14.228-2.067l-7.499-15.192c-0.842-1.707-2.58-2.787-4.483-2.787 c-1.903,0-3.642,1.081-4.483,2.787l-7.497,15.192l-16.189,2.353L241.075,75.205z M261.643,148.061l1.597,9.303l-8.356-4.393 c-0.728-0.383-1.527-0.574-2.326-0.574c-0.799,0-1.599,0.191-2.326,0.574l-8.355,4.393l1.596-9.303 c0.278-1.622-0.259-3.277-1.438-4.426l-6.76-6.59l9.342-1.357c1.629-0.237,3.037-1.26,3.765-2.735l4.178-8.465l4.178,8.465 c0.728,1.476,2.136,2.498,3.765,2.735l9.341,1.357l-6.761,6.59C261.902,144.783,261.365,146.438,261.643,148.061z M221.539,137.621 l11.633,11.339l-2.864,16.697c-0.322,1.876,0.449,3.773,1.988,4.891c0.872,0.633,1.903,0.955,2.94,0.955 c0.795,0,1.594-0.189,2.325-0.574l14.996-7.884l14.998,7.884c1.685,0.886,3.727,0.736,5.266-0.381 c1.539-1.119,2.311-3.015,1.988-4.891l-2.865-16.697l10.45-10.187l14.833,43.106h-89.541L221.539,137.621z M204.268,191.88h43.24 c-0.859,8.94-13.6,16.319-28.59,16.319c-8.075,0-15.716-2.131-21.161-5.793C199.432,198.718,201.606,195.189,204.268,191.88z M193.676,221.207c0-3.053,0.313-6.062,0.909-9.006c6.78,3.858,15.285,5.998,24.333,5.998c14.6,0,27.059-5.445,33.639-13.675 c6.581,8.23,19.041,13.675,33.643,13.675c9.047,0,17.551-2.14,24.331-5.998c0.597,2.945,0.909,5.953,0.909,9.006 c0,28.266-26.415,51.262-58.883,51.262C220.09,272.469,193.676,249.473,193.676,221.207z M209.961,269.296 c9.97,7.001,22.155,11.603,35.453,12.831l-13.134,34.952c-22.285-12.179-35.241-29.438-40.259-37.174L209.961,269.296z M200.426,454.919c2.212-8.294,9.789-14.423,18.771-14.423c8.982,0,16.558,6.129,18.77,14.423H200.426z M258.996,448.072h-12.875 c-4.567-10.339-14.913-17.576-26.923-17.576c-5.173,0-10.035,1.346-14.263,3.699l3.142-62.748h88.965l3.143,62.752 c-4.229-2.354-9.09-3.703-14.264-3.703C273.91,430.496,263.563,437.733,258.996,448.072z M208.578,361.447l0.546-10.888h86.871 l0.546,10.888H208.578z M267.149,454.919c2.212-8.294,9.789-14.423,18.772-14.423c8.981,0,16.558,6.129,18.77,14.423H267.149z M344.969,352.779l-42.235-32.646c-1.544-1.193-3.641-1.38-5.373-0.476c-1.729,0.903-2.776,2.732-2.679,4.682l0.813,16.22h-85.871 l0.813-16.22c0.098-1.949-0.949-3.778-2.679-4.682c-1.73-0.903-3.828-0.718-5.373,0.476l-42.235,32.646v-54.025l23.236-13.742 c5.843,9.185,21.451,30.094,49.431,43.582c0.685,0.33,1.427,0.496,2.171,0.496c0.631,0,1.262-0.119,1.859-0.358 c1.304-0.522,2.327-1.568,2.821-2.883l12.891-34.304l12.893,34.304c0.494,1.315,1.517,2.36,2.821,2.883 c0.598,0.239,1.229,0.358,1.859,0.358c0.744,0,1.486-0.166,2.171-0.496c27.982-13.49,43.593-34.403,49.432-43.581l23.235,13.741 V352.779z M356.489,323.795h-1.52v-22.918h1.52c6.318,0,11.459,5.141,11.459,11.46 C367.948,318.655,362.807,323.795,356.489,323.795z"/> </g> </g>
</svg>